<?xml version="1.0" standalone="no"?>
<!DOCTYPE svg PUBLIC "-//W3C//DTD SVG 20010904//EN"
 "http://www.w3.org/TR/2001/REC-SVG-20010904/DTD/svg10.dtd">
<svg version="1.0" xmlns="http://www.w3.org/2000/svg"
 width="1880.000000pt" height="823.000000pt" viewBox="0 0 1880.000000 823.000000"
 preserveAspectRatio="xMidYMid meet">

<g transform="translate(0.000000,823.000000) scale(0.100000,-0.100000)"
fill="#b02417" stroke="none">
<path d="M0 4115 l0 -4115 9400 0 9400 0 0 4115 0 4115 -9400 0 -9400 0 0
-4115z m9060 35 l0 -3470 -55 0 -55 0 0 3453 0 3453 48 16 c26 8 50 16 55 17
4 0 7 -1560 7 -3469z m4424 3231 l168 -168 -164 -169 c-90 -93 -195 -202 -233
-243 -39 -41 -149 -156 -245 -255 -96 -100 -247 -255 -335 -346 -88 -91 -243
-251 -345 -355 -102 -105 -248 -256 -325 -335 -625 -647 -1365 -1408 -1697
-1745 l-197 -200 -166 165 c-91 91 -165 169 -165 174 0 14 56 73 319 341 135
138 388 396 561 574 173 179 497 512 720 740 633 648 800 821 1020 1051 113
118 288 300 390 405 102 104 260 267 350 361 91 94 167 172 170 173 3 0 81
-75 174 -168z m470 -482 l168 -171 -89 -91 c-48 -50 -151 -157 -228 -237 -318
-330 -419 -435 -605 -625 -189 -194 -272 -279 -880 -906 -156 -162 -377 -388
-490 -504 -113 -115 -293 -300 -400 -410 -108 -110 -343 -350 -524 -534 l-329
-333 -168 168 c-93 93 -168 172 -167 176 2 4 80 85 173 180 367 373 814 832
1670 1713 203 209 466 479 585 600 118 121 341 350 495 509 154 160 352 364
440 454 88 90 162 168 163 173 2 5 7 9 10 9 4 0 83 -77 176 -171z m-10052
-204 c149 -30 294 -128 356 -238 66 -117 91 -245 92 -464 l0 -133 -214 0 -214
0 -4 143 c-5 166 -22 229 -75 287 -39 44 -81 60 -157 60 -74 0 -126 -20 -171
-65 -72 -72 -69 -36 -73 -870 -3 -799 -1 -845 44 -923 38 -64 89 -87 195 -87
78 0 90 3 135 30 75 47 103 109 114 260 5 66 10 188 10 272 l0 152 -115 3
c-63 2 -115 6 -115 11 0 4 0 77 0 162 l0 155 325 0 325 0 0 -695 0 -695 -143
0 -143 0 -12 33 c-7 18 -15 62 -19 97 l-6 63 -21 -29 c-69 -95 -143 -153 -234
-180 -63 -19 -289 -19 -357 0 -220 61 -344 210 -406 486 l-24 105 0 755 0 755
32 115 c53 197 141 315 283 382 41 20 94 41 118 47 116 32 337 34 474 6z
m-1144 -197 l2 -178 -310 0 -310 0 0 -365 0 -365 245 0 245 0 0 -190 0 -190
-245 0 -245 0 0 -395 0 -395 308 -2 307 -3 0 -175 0 -175 -517 -3 -518 -2 0
1310 0 1310 518 -2 517 -3 3 -177z m2397 -1128 l0 -1305 -210 0 -210 0 -3
1295 c-1 712 0 1301 3 1308 3 10 52 12 212 10 l208 -3 0 -1305z m1260 1283
c115 -26 184 -61 256 -129 112 -108 169 -281 169 -520 0 -270 -75 -436 -239
-530 -51 -30 -52 -32 -27 -38 31 -8 102 -52 137 -86 64 -63 120 -185 138 -299
14 -89 14 -391 0 -480 -22 -142 -97 -293 -183 -367 -53 -46 -137 -89 -212
-108 -112 -28 -240 -36 -576 -36 l-338 0 0 1311 0 1311 393 -5 c347 -4 402 -6
482 -24z m1245 -1283 l0 -1305 -215 -3 -215 -2 0 1303 c0 717 3 1307 7 1311 4
3 100 5 215 4 l208 -3 0 -1305z m6759 1046 l163 -164 -133 -138 c-74 -76 -186
-193 -249 -258 -222 -231 -776 -803 -974 -1006 -111 -113 -239 -245 -285 -295
-125 -133 -529 -552 -926 -958 -192 -198 -420 -432 -506 -520 -86 -89 -224
-232 -307 -317 l-151 -155 -166 165 c-91 91 -165 168 -165 173 0 12 452 484
990 1032 124 127 272 280 328 340 57 61 325 335 595 610 270 275 573 583 672
685 99 102 284 291 410 421 127 129 298 305 380 392 83 86 152 156 155 156 3
1 79 -73 169 -163z m577 -596 c158 -160 291 -294 294 -300 3 -5 132 -137 285
-292 740 -749 1375 -1399 1375 -1408 0 -12 -332 -350 -344 -350 -6 0 -19 9
-29 20 -50 59 -802 834 -1217 1255 -467 475 -985 1006 -988 1014 -2 7 324 351
333 351 1 0 132 -131 291 -290z m-550 -403 c109 -112 314 -323 454 -468 289
-299 946 -975 1448 -1490 67 -69 122 -128 122 -130 0 -2 -76 -82 -168 -177
l-168 -172 -215 217 c-184 186 -290 296 -454 468 -119 124 -727 748 -1105
1132 -250 255 -455 468 -455 473 0 11 324 350 334 350 5 0 98 -92 207 -203z
m-230 -739 c246 -255 532 -548 634 -653 102 -104 331 -341 510 -525 179 -184
397 -408 484 -497 l160 -163 -134 -137 c-73 -76 -150 -155 -171 -177 l-37 -38
-228 233 c-126 129 -310 317 -409 419 -99 102 -259 266 -355 365 -96 99 -315
324 -485 500 -170 176 -410 421 -532 545 -123 124 -223 229 -223 234 0 6 330
356 336 356 0 0 203 -208 450 -462z m-580 -376 c187 -191 443 -455 569 -587
261 -272 373 -387 927 -955 l395 -405 -166 -170 c-91 -93 -171 -171 -177 -173
-6 -2 -125 115 -265 260 -140 144 -326 336 -414 427 -88 91 -272 280 -410 421
-137 140 -340 347 -450 460 -110 113 -311 318 -448 456 -136 138 -247 254
-247 259 0 6 339 355 346 355 1 0 154 -156 340 -348z m-248 -727 c123 -126
221 -235 220 -241 -4 -16 -335 -354 -346 -354 -5 0 -49 42 -97 93 -49 50 -227
233 -397 406 l-308 314 58 61 c31 33 111 116 178 184 l121 123 175 -178 c96
-98 274 -281 396 -408z m-9268 49 c128 -60 202 -169 239 -353 19 -96 21 -137
21 -525 0 -388 -2 -430 -21 -516 -59 -275 -186 -380 -459 -380 -261 0 -390 95
-457 336 l-28 99 0 475 c0 470 0 476 24 560 30 108 67 175 131 234 90 84 164
106 350 103 127 -2 139 -4 200 -33z m1145 6 c117 -46 200 -153 247 -320 23
-84 23 -92 23 -560 0 -471 0 -476 -24 -563 -65 -237 -201 -337 -456 -337 -260
0 -400 108 -458 352 -21 89 -22 113 -22 548 0 435 1 459 22 548 29 120 73 202
139 259 98 84 162 103 339 99 107 -2 140 -7 190 -26z m2208 -3 c87 -40 130
-78 170 -155 37 -69 57 -156 57 -243 l0 -47 -62 -10 c-35 -6 -95 -14 -134 -18
l-72 -6 -7 73 c-14 139 -57 190 -160 191 -61 1 -100 -16 -129 -55 -18 -24 -21
-43 -21 -115 0 -143 42 -205 255 -376 267 -215 330 -322 330 -561 0 -179 -37
-276 -136 -361 -77 -66 -170 -94 -314 -94 -90 0 -121 4 -175 24 -118 43 -181
101 -232 213 -21 47 -27 78 -31 164 l-4 106 88 7 c49 3 112 9 140 12 l51 6 7
-92 c12 -158 39 -190 163 -190 87 0 124 21 148 84 23 59 17 162 -13 229 -37
85 -74 122 -282 295 -200 166 -277 294 -287 477 -10 201 79 368 234 437 72 32
106 37 238 34 105 -2 127 -6 178 -29z m-5025 -124 l-3 -128 -222 -3 -223 -2 0
-255 0 -255 180 0 180 0 0 -135 0 -135 -180 0 -180 0 0 -360 0 -361 -147 3
-148 3 -3 865 c-1 476 0 871 3 878 3 9 88 12 375 12 l371 0 -3 -127z m447
-623 l0 -745 210 -5 210 -5 0 -125 0 -125 -355 0 -355 0 -3 878 -2 878 147 -3
148 -3 0 -745z m3426 736 c182 -33 290 -139 325 -323 18 -97 18 -327 -1 -415
-24 -114 -95 -217 -175 -253 l-38 -17 40 -112 c23 -61 53 -145 68 -186 15 -41
55 -151 89 -245 34 -93 63 -174 64 -180 1 -6 -53 -10 -147 -10 l-149 0 -52
150 c-28 83 -77 227 -109 320 -32 94 -63 178 -68 188 -7 14 -20 17 -63 16
l-55 -2 -2 -336 -3 -336 -147 -3 -148 -3 0 881 0 880 248 0 c161 -1 273 -5
323 -14z m7367 -2087 c172 -74 241 -284 150 -458 -40 -76 -79 -114 -151 -147
-51 -22 -75 -27 -143 -27 -70 0 -90 4 -136 28 -68 35 -99 64 -134 128 -27 48
-29 60 -29 162 0 96 3 116 23 155 82 158 262 226 420 159z m3077 -49 c18 -41
56 -131 85 -200 28 -69 60 -143 70 -165 10 -22 30 -66 44 -98 21 -48 30 -58
56 -63 20 -5 30 -12 30 -25 0 -18 -10 -19 -145 -19 -135 0 -145 1 -145 19 0
14 10 20 41 24 22 3 42 7 45 9 2 2 -8 31 -21 64 -14 32 -25 65 -25 72 0 9 -32
12 -124 12 l-123 0 -27 -72 c-14 -39 -24 -74 -21 -76 3 -3 22 -8 42 -11 24 -4
38 -12 38 -21 0 -12 -20 -16 -107 -18 -65 -2 -108 1 -108 7 0 5 12 18 28 29
15 11 41 49 59 83 37 75 83 177 83 185 0 5 64 154 126 292 34 77 57 71 99 -28z
m-1242 42 c66 -30 121 -84 154 -151 27 -55 26 -220 -3 -282 -93 -200 -351
-258 -521 -115 -100 84 -124 293 -47 422 62 104 150 153 277 153 64 1 88 -4
140 -27z m722 12 l65 -16 0 -89 c0 -81 -2 -89 -19 -89 -12 0 -21 10 -26 28
-12 47 -47 94 -81 108 -49 21 -147 18 -192 -5 -85 -43 -126 -166 -102 -301 25
-142 119 -230 231 -217 27 3 54 9 59 12 6 3 10 46 10 95 0 94 -3 100 -56 100
-17 0 -24 6 -24 20 0 19 7 20 135 20 128 0 135 -1 135 -20 0 -13 -7 -20 -19
-20 -48 0 -51 -7 -51 -114 l0 -102 -48 -17 c-163 -59 -344 -31 -430 68 -65 74
-77 109 -77 230 0 96 3 116 24 155 62 119 151 167 314 169 51 1 115 -6 152
-15z m-6195 -20 c25 -12 55 -32 67 -45 22 -25 46 -98 39 -120 -2 -8 -7 -26
-10 -41 -17 -78 -118 -138 -233 -138 l-73 0 0 -104 0 -104 40 -7 c30 -5 40
-11 40 -26 0 -18 -9 -19 -135 -19 -125 0 -135 1 -135 19 0 12 11 21 33 27 l32
10 0 259 0 260 -30 5 c-22 4 -31 11 -33 29 l-4 23 179 -4 c155 -3 184 -6 223
-24z m542 -1 c53 -24 74 -51 83 -108 11 -66 -9 -118 -63 -166 l-48 -43 63
-101 c35 -55 79 -114 98 -131 47 -42 46 -64 -2 -64 -113 1 -146 28 -232 191
-51 96 -53 99 -87 99 l-35 0 3 -112 3 -113 43 -9 c31 -7 42 -14 42 -27 0 -18
-10 -19 -135 -19 -125 0 -135 1 -135 19 0 12 11 21 33 27 l32 10 0 259 0 260
-30 5 c-22 4 -31 11 -33 29 l-4 23 179 -4 c154 -3 184 -7 225 -25z m473 7 c0
-8 -16 -20 -35 -26 l-35 -12 0 -258 0 -259 38 -9 c26 -7 37 -15 35 -25 -3 -14
-23 -16 -133 -16 -116 0 -130 2 -133 18 -2 11 3 17 16 17 11 0 29 8 41 18 21
17 21 22 19 267 l-3 250 -27 3 c-14 2 -32 9 -38 17 -24 29 0 36 128 33 105 -3
127 -6 127 -18z m258 8 c13 -33 142 -329 163 -376 13 -29 24 -57 24 -62 0 -17
17 -11 23 8 3 9 20 53 37 97 39 99 61 157 98 260 l30 80 92 3 c90 3 91 2 88
-20 -2 -14 -12 -24 -28 -28 -23 -5 -25 -10 -27 -75 -2 -39 3 -155 10 -260 l12
-189 33 -10 c21 -6 32 -15 32 -27 0 -18 -10 -19 -125 -19 -117 0 -125 1 -125
19 0 13 9 21 30 26 17 4 30 12 31 18 5 55 -11 430 -18 423 -3 -2 -28 -69 -57
-148 -121 -327 -130 -348 -152 -348 -16 0 -27 14 -46 58 -36 79 -140 325 -168
394 -13 32 -24 57 -25 55 -1 -1 -5 -102 -8 -224 -5 -212 -5 -223 13 -223 32 0
50 -11 50 -31 0 -17 -9 -19 -105 -19 -98 0 -105 1 -105 20 0 14 9 21 35 26 19
3 37 13 40 23 8 27 25 290 25 404 0 102 -1 107 -21 107 -29 0 -59 18 -59 35 0
12 19 15 99 15 70 0 100 -4 104 -12z m1105 -70 c-3 -69 -6 -82 -21 -84 -19 -2
-31 17 -42 69 -7 37 -37 47 -136 47 l-79 0 0 -120 0 -120 53 0 c83 0 97 7 97
46 0 30 3 34 25 34 l25 0 0 -100 c0 -55 0 -103 0 -107 0 -5 -10 -8 -22 -8 -19
0 -24 7 -28 40 l-5 40 -73 3 -73 3 3 -118 3 -118 84 -3 c51 -2 97 2 114 9 30
13 57 60 57 99 0 15 7 20 25 20 25 0 25 -1 25 -90 l0 -90 -245 0 c-230 0 -245
1 -245 18 0 11 13 24 33 33 l32 14 0 254 0 255 -32 8 c-23 6 -33 14 -33 28 0
19 8 20 230 20 l231 0 -3 -82z m632 71 c103 -23 160 -98 146 -193 -10 -64 -42
-107 -105 -138 -45 -23 -68 -28 -128 -28 l-73 0 0 -104 0 -103 40 -7 c31 -5
40 -11 40 -26 0 -19 -7 -20 -135 -20 -125 0 -135 1 -135 19 0 12 11 21 33 27
l32 10 0 259 0 259 -32 8 c-23 6 -33 14 -33 28 0 19 7 20 153 20 83 0 172 -5
197 -11z m1212 -4 c150 -31 233 -123 255 -281 10 -73 -30 -177 -91 -240 -81
-82 -126 -94 -351 -94 -174 0 -185 1 -185 19 0 12 11 21 33 27 l32 10 0 259 0
260 -30 5 c-21 4 -31 11 -33 28 -3 22 -3 22 150 22 94 0 179 -6 220 -15z m564
3 c9 -14 -23 -38 -53 -38 -22 0 -23 -2 -23 -95 0 -52 3 -95 6 -95 3 0 35 20
71 45 35 25 66 45 68 45 3 0 5 -11 5 -25 0 -19 -16 -35 -75 -75 l-75 -51 0
-140 0 -141 84 3 c98 5 118 17 135 85 9 33 16 44 31 44 18 0 20 -7 20 -90 l0
-90 -230 0 c-217 0 -230 1 -230 19 0 12 11 21 33 27 l32 10 3 98 3 98 -37 -21
c-20 -12 -38 -21 -39 -19 -12 12 12 57 41 76 l35 23 -3 132 c-3 127 -4 132
-25 135 -26 4 -47 27 -38 42 9 15 252 14 261 -2z"/>
<path d="M5970 5965 l0 -368 132 7 c114 6 139 10 187 34 70 34 96 72 111 165
14 82 8 320 -10 379 -16 57 -66 103 -130 122 -30 9 -108 19 -172 23 l-118 6 0
-368z"/>
<path d="M5974 5261 c-2 -2 -4 -191 -4 -419 l0 -414 133 4 c154 5 200 20 251
80 81 95 99 368 36 569 -24 80 -77 139 -142 159 -41 12 -265 29 -274 21z"/>
<path d="M3857 3410 c-50 -9 -82 -42 -108 -109 -20 -52 -22 -78 -26 -406 -6
-431 5 -650 34 -717 26 -58 67 -82 143 -82 79 -1 122 28 152 102 23 57 23 58
23 552 0 452 -2 499 -18 547 -21 59 -74 113 -112 113 -13 0 -29 2 -37 4 -7 2
-30 0 -51 -4z"/>
<path d="M4954 3377 c-65 -59 -68 -84 -72 -580 -4 -551 7 -634 87 -681 23 -13
52 -19 90 -19 106 0 154 51 171 186 12 94 13 818 0 924 -10 90 -35 150 -76
182 -21 17 -41 21 -95 21 -64 0 -72 -2 -105 -33z"/>
<path d="M6050 3081 l0 -301 87 0 c116 0 167 23 196 89 26 58 36 268 18 362
-23 114 -52 134 -205 145 l-96 7 0 -302z"/>
<path d="M13462 1471 c-44 -28 -69 -72 -88 -158 -28 -127 9 -266 86 -321 107
-79 224 -34 265 100 47 152 15 303 -78 372 -41 30 -141 34 -185 7z"/>
<path d="M16650 1342 c-13 -31 -31 -75 -40 -97 -39 -91 -44 -85 65 -85 74 0
96 3 92 13 -64 163 -77 198 -77 206 0 5 -4 12 -9 15 -5 3 -19 -20 -31 -52z"/>
<path d="M15285 1472 c-41 -25 -50 -38 -75 -105 -32 -86 -26 -219 13 -300 49
-98 144 -140 229 -98 55 27 83 69 104 156 35 152 -10 300 -108 351 -39 20
-127 18 -163 -4z"/>
<path d="M9840 1350 l0 -140 28 0 c131 1 202 95 153 205 -23 53 -63 75 -136
75 l-45 0 0 -140z"/>
<path d="M10377 1483 c-4 -3 -7 -60 -7 -126 l0 -119 66 4 c54 3 70 8 85 27 56
69 45 170 -21 203 -34 18 -110 24 -123 11z"/>
<path d="M12899 1484 c-5 -84 4 -260 14 -266 17 -11 98 2 126 21 67 43 66 188
-1 230 -25 16 -138 28 -139 15z"/>
<path d="M14090 1485 c0 -3 0 -121 -1 -262 l0 -258 70 -3 c84 -3 132 17 180
75 42 51 54 101 49 203 -3 70 -9 93 -32 132 -37 64 -76 94 -136 107 -53 11
-130 15 -130 6z"/>
</g>
</svg>
